<svg width="61" height="60" viewBox="0 0 61 60" fill="none" xmlns="http://www.w3.org/2000/svg">
<path d="M17.4395 17.1137H46.636L39.2175 24.5322C38.1959 25.5528 38.1959 27.2089 39.2175 28.2315C39.7283 28.7423 40.397 28.9981 41.0666 28.9981C41.7363 28.9981 42.405 28.7423 42.9158 28.2315L54.7993 16.3489C54.9201 16.2281 55.0285 16.095 55.1246 15.9532C55.1483 15.9161 55.1655 15.8743 55.1873 15.8362C55.252 15.7287 55.3158 15.6203 55.3652 15.5043C55.3881 15.4491 55.3985 15.3901 55.4185 15.334C55.4537 15.2294 55.4927 15.1257 55.5155 15.0153C55.5498 14.846 55.5678 14.6739 55.5678 14.4979C55.5678 14.3219 55.5498 14.1497 55.5155 13.9804C55.4936 13.8701 55.4546 13.7664 55.4185 13.6618C55.3985 13.6056 55.389 13.5467 55.3652 13.4915C55.3158 13.3755 55.253 13.268 55.1873 13.1595C55.1655 13.1215 55.1483 13.0796 55.1246 13.0425C55.0285 12.9008 54.9201 12.7676 54.7993 12.6468L42.9186 0.7662C41.897 -0.2554 40.2419 -0.2554 39.2194 0.7662C38.1978 1.78685 38.1978 3.44291 39.2194 4.46546L46.636 11.883H17.4395C7.82371 11.883 0 19.7067 0 29.3225C0 30.7674 1.17094 31.9383 2.61583 31.9383C4.06072 31.9383 5.23166 30.7674 5.23166 29.3225C5.23166 22.5898 10.7078 17.1137 17.4395 17.1137ZM57.7081 28.0602C56.2632 28.0602 55.0922 29.2312 55.0922 30.6761C55.0922 37.4078 49.6161 42.8839 42.8844 42.8839H13.6879L21.1064 35.4654C22.128 34.4448 22.128 32.7887 21.1064 31.7662C20.0848 30.7436 18.4297 30.7446 17.4072 31.7662L5.52368 43.6496C5.40288 43.7704 5.29444 43.9036 5.19837 44.0453C5.17554 44.0815 5.15937 44.1214 5.13844 44.1576C5.07281 44.266 5.00717 44.3754 4.95866 44.4943C4.93678 44.5485 4.92632 44.6066 4.90634 44.6617C4.87115 44.7673 4.8312 44.8719 4.80837 44.9832C4.77413 45.1525 4.75605 45.3247 4.75605 45.5007C4.75605 45.6767 4.77413 45.8488 4.80837 46.0182C4.83025 46.1294 4.8702 46.2341 4.90634 46.3397C4.92632 46.3948 4.93583 46.4529 4.95866 46.5071C5.00812 46.625 5.07281 46.7344 5.13844 46.8438C5.15937 46.8799 5.17554 46.9199 5.19837 46.956C5.29444 47.0978 5.40288 47.2309 5.52368 47.3517L17.4053 59.2333C17.9161 59.7441 18.5848 60 19.2544 60C19.9241 60 20.5928 59.7441 21.1036 59.2333C22.1252 58.2127 22.1252 56.5566 21.1036 55.5341L13.687 48.1165H42.8834C52.4992 48.1165 60.3229 40.2928 60.3229 30.677C60.3239 29.2312 59.1529 28.0602 57.7081 28.0602Z" fill="#3DBB74"/>
</svg>
