<svg width="49" height="61" viewBox="0 0 49 61" fill="none" xmlns="http://www.w3.org/2000/svg">
<path d="M33.1974 21.3623C34.064 20.4957 34.064 19.0907 33.1974 18.2241C32.3308 17.3575 30.926 17.3575 30.0593 18.2241L21.2727 27.0108L18.4036 24.1416C17.5371 23.275 16.1321 23.275 15.2655 24.1416C14.3989 25.0083 14.3988 26.4131 15.2654 27.2797L19.7037 31.7182C20.1197 32.1342 20.6842 32.3679 21.2727 32.3679C21.8612 32.3679 22.4257 32.1342 22.8418 31.7182L33.1974 21.3623Z" fill="#3DBB74"/>
<path fill-rule="evenodd" clip-rule="evenodd" d="M19.4821 1.79844C22.1944 -0.599481 26.2686 -0.599481 28.9809 1.79844C29.6232 2.36623 30.4946 2.59974 31.3349 2.42913C34.8827 1.70865 38.4113 3.74581 39.5611 7.17868C39.8336 7.99151 40.4715 8.62945 41.2843 8.90174C44.717 10.0518 46.7544 13.5802 46.0337 17.1282C45.8633 17.9683 46.0967 18.8397 46.6645 19.4819C49.0626 22.1943 49.0626 26.2687 46.6645 28.981C46.0967 29.6234 45.8633 30.4947 46.0337 31.3347C46.7062 34.6456 44.9771 37.9393 41.9536 39.2994C44.4865 42.9845 46.4917 47.0099 47.9078 51.2584L48.1498 51.9851C48.8501 54.0852 47.0636 56.1756 44.8801 55.8116L41.1553 55.1909C40.1449 55.0225 39.5635 54.9287 39.1291 54.9048C38.9336 54.8938 38.8288 54.9018 38.7779 54.9092L38.7572 54.9128C38.7463 54.9148 38.7403 54.9163 38.7403 54.9163L38.7365 54.9178L38.7329 54.9199C38.7329 54.9199 38.7297 54.9219 38.7241 54.9264C38.719 54.9302 38.7116 54.9361 38.7031 54.9438C38.6646 54.9779 38.5903 55.0521 38.472 55.2081C38.2087 55.5545 37.903 56.0578 37.3758 56.9363L36.3423 58.6588C36.142 58.9929 35.9165 59.3693 35.6952 59.6672C35.4712 59.969 35.0085 60.5406 34.2176 60.8211C33.4678 61.0871 32.645 61.0554 31.918 60.7329C31.1508 60.3924 30.7334 59.787 30.533 59.469C30.3357 59.1547 30.1395 58.7624 29.9656 58.4142L28.7741 56.0315C28.6596 55.8019 28.5989 55.6809 28.5388 55.5593C27.3814 53.2198 26.3674 50.8122 25.5026 48.3499C24.6623 48.5005 23.8007 48.5005 22.9604 48.3499C22.0956 50.8122 21.0816 53.2198 19.9241 55.5593C19.8641 55.6809 19.8034 55.8019 19.6889 56.0315L18.4974 58.4142C18.3234 58.7624 18.1274 59.1547 17.9298 59.469C17.7296 59.787 17.312 60.3924 16.5449 60.7329C15.818 61.0554 14.995 61.0871 14.2455 60.8211C13.4545 60.5406 12.9917 59.969 12.7677 59.6672C12.5465 59.3693 12.3209 58.9929 12.1208 58.6588L11.0871 56.9363C10.5601 56.0578 10.2544 55.5545 9.9911 55.2081C9.87254 55.0521 9.79848 54.9779 9.75993 54.9438C9.74203 54.9279 9.73002 54.9199 9.73002 54.9199L9.72652 54.9178L9.72271 54.9163C9.72271 54.9163 9.70877 54.9125 9.6851 54.9092C9.63418 54.9018 9.52947 54.8938 9.3339 54.9048C8.89955 54.9287 8.31819 55.0225 7.30771 55.1909L3.5829 55.8116C1.39925 56.1756 -0.387013 54.0852 0.31303 51.9851L0.555263 51.2584C1.97141 47.0099 3.9765 42.9845 6.50935 39.2994C3.48577 37.9393 1.75681 34.6456 2.42913 31.3347C2.59973 30.4947 2.36623 29.6234 1.79844 28.981C-0.599481 26.2687 -0.599481 22.1943 1.79844 19.4819C2.36623 18.8397 2.59973 17.9683 2.42913 17.1282C1.70865 13.5802 3.74581 10.0518 7.17868 8.90174C7.99151 8.62945 8.62945 7.99151 8.90174 7.17868C10.0518 3.74581 13.5802 1.70865 17.1282 2.42913C17.9683 2.59974 18.8397 2.36623 19.4821 1.79844ZM31.3349 46.0338C34.3563 46.6475 37.3636 45.261 38.8998 42.7159C40.5973 45.3231 42.0098 48.1061 43.1122 51.0179L41.7864 50.7968C40.9094 50.6504 40.083 50.5125 39.3747 50.4734C38.585 50.4297 37.737 50.4909 36.8757 50.8886C36.0144 51.2862 35.418 51.8922 34.9392 52.5215C34.5099 53.0863 34.0788 53.8047 33.6214 54.5672L33.2847 55.1285L32.7465 54.0524C32.6284 53.816 32.5722 53.7035 32.5166 53.5911C31.3497 51.2324 30.3392 48.7991 29.4922 46.3075C30.0496 46.0063 30.7011 45.9051 31.3349 46.0338ZM17.1282 46.0338C17.7618 45.9051 18.4134 46.0063 18.9708 46.3075C18.1237 48.7991 17.1133 51.2324 15.9463 53.5911C15.8907 53.7035 15.8345 53.816 15.7164 54.0524L15.1782 55.1285L14.8415 54.5672C14.384 53.8047 13.9531 53.0863 13.5237 52.5215C13.045 51.8922 12.4485 51.2862 11.5872 50.8886C10.7259 50.4909 9.87786 50.4297 9.08826 50.4734C8.38005 50.5125 7.5537 50.6504 6.67655 50.7968L5.3507 51.0179C6.45322 48.1061 7.8657 45.3231 9.56308 42.7159C11.0993 45.261 14.1067 46.6475 17.1282 46.0338ZM26.0414 5.1235C25.0079 4.20968 23.4551 4.20968 22.4216 5.1235C20.7363 6.61344 18.4495 7.2262 16.2449 6.77851C14.8929 6.50393 13.5483 7.28025 13.11 8.58844C12.3955 10.7214 10.7214 12.3955 8.58844 13.11C7.28025 13.5483 6.50393 14.8929 6.77851 16.2449C7.2262 18.4494 6.61344 20.7362 5.1235 22.4216C4.20968 23.4552 4.20968 25.0077 5.1235 26.0415C6.61344 27.7268 7.2262 30.0136 6.77851 32.2179C6.50393 33.5701 7.28025 34.9148 8.58844 35.353C10.7214 36.0675 12.3955 37.7416 13.11 39.8746C13.5483 41.1826 14.8929 41.959 16.2449 41.6845C18.4495 41.2368 20.7363 41.8496 22.4216 43.3396C23.4551 44.2533 25.0079 44.2533 26.0414 43.3396C27.7267 41.8496 30.0135 41.2368 32.2181 41.6845C33.5702 41.959 34.9147 41.1826 35.3529 39.8746C36.0674 37.7416 37.7415 36.0675 39.8744 35.353C41.1828 34.9148 41.9589 33.5701 41.6846 32.2179C41.2366 30.0136 41.8494 27.7268 43.3394 26.0415C44.2534 25.0077 44.2534 23.4552 43.3394 22.4216C41.8494 20.7362 41.2366 18.4494 41.6846 16.2449C41.9589 14.8929 41.1828 13.5483 39.8744 13.11C37.7415 12.3955 36.0674 10.7214 35.3529 8.58844C34.9147 7.28025 33.5702 6.50393 32.2181 6.77851C30.0135 7.2262 27.7267 6.61344 26.0414 5.1235Z" fill="#3DBB74"/>
</svg>
