<svg width="14" height="14" viewBox="0 0 14 14" fill="none" xmlns="http://www.w3.org/2000/svg">
<g clip-path="url(#clip0_1_199)">
<path d="M13.6544 0.150827C13.2855 0.0428744 4.26248 -0.855475 1.09364 3.42567C-0.309801 5.32223 -0.330884 7.9221 1.02331 11.1525C0.679794 11.8655 0.379068 12.6166 0.133987 13.4091C0.0594752 13.6499 0.194252 13.9052 0.434795 13.9795C0.479638 13.9934 0.525056 14 0.5699 14C0.764368 14 0.944919 13.8744 1.00518 13.6787C3.4204 5.87028 11.2693 2.09267 13.6763 1.13835C13.9105 1.0454 14.2235 0.317405 13.6544 0.150827Z" fill="#84829A"/>
<path d="M2.47186 12.1297C3.77826 12.6778 5.08447 12.9587 6.29916 12.9587C7.39097 12.9587 8.40916 12.7342 9.28657 12.279C11.0524 11.3629 12.1315 9.61075 12.407 7.21126C12.6877 4.76584 13.0372 3.2341 13.3288 2.29706C10.7335 3.49422 5.16872 6.59734 2.47186 12.1297Z" fill="#84829A"/>
</g>
<defs>
<clipPath id="clip0_1_199">
<rect width="14" height="14" fill="white"/>
</clipPath>
</defs>
</svg>
