<svg width="58" height="58" viewBox="0 0 58 58" fill="none" xmlns="http://www.w3.org/2000/svg">
<path d="M38.5813 56.2329C38.8441 56.2327 39.1047 56.1839 39.35 56.0892C42.1381 55.0168 44.7432 53.5176 47.0721 51.6451C47.2922 51.4684 47.4754 51.2501 47.6112 51.0025C47.747 50.755 47.8328 50.4831 47.8637 50.2023C47.8945 49.9215 47.8699 49.6375 47.7911 49.3662C47.7123 49.095 47.5809 48.842 47.4045 48.6217C47.228 48.4013 47.01 48.2179 46.7628 48.0819C46.5155 47.9459 46.244 47.86 45.9636 47.8291C45.6832 47.7982 45.3995 47.8229 45.1286 47.9018C44.8578 47.9806 44.6051 48.1122 44.385 48.2889C42.401 49.884 40.1814 51.1606 37.8058 52.073C37.3363 52.2525 36.9446 52.5911 36.6987 53.0299C36.4529 53.4687 36.3684 53.9799 36.4601 54.4746C36.5518 54.9693 36.8138 55.4162 37.2006 55.7375C37.5873 56.0587 38.0743 56.234 38.5767 56.2329H38.5813Z" fill="#3DBB74"/>
<path d="M55.3674 34.067C55.0948 33.9934 54.8103 33.9743 54.5303 34.0109C54.2503 34.0475 53.9803 34.139 53.7356 34.2802C53.491 34.4214 53.2765 34.6095 53.1046 34.8338C52.9326 35.058 52.8065 35.3141 52.7335 35.5872C52.0707 38.0469 51.0304 40.3885 49.6496 42.5283C49.3405 43.0075 49.2341 43.59 49.3539 44.1476C49.4737 44.7053 49.8098 45.1925 50.2883 45.502C50.7668 45.8115 51.3485 45.918 51.9054 45.7981C52.4624 45.6781 52.9489 45.3416 53.258 44.8624C54.8779 42.3496 56.0983 39.6002 56.8755 36.7124C56.9503 36.4395 56.9707 36.1545 56.9354 35.8738C56.9001 35.593 56.8098 35.322 56.6697 35.0763C56.5296 34.8305 56.3425 34.6149 56.119 34.4417C55.8956 34.2685 55.6401 34.1412 55.3674 34.067Z" fill="#3DBB74"/>
<path d="M28.9848 57.9999C29.5545 57.9999 30.1008 57.7733 30.5036 57.37C30.9064 56.9666 31.1327 56.4196 31.1327 55.8492C31.1327 55.2788 30.9064 54.7317 30.5036 54.3284C30.1008 53.9251 29.5545 53.6985 28.9848 53.6985C24.1108 53.6985 19.3462 52.2513 15.2936 49.54C11.241 46.8286 8.08224 42.9748 6.21689 38.4659C4.35154 33.957 3.86332 28.9955 4.81397 24.2088C5.76461 19.4221 8.11143 15.0251 11.5577 11.5739C15.9356 7.18246 21.806 4.60524 27.9978 4.3564C34.1896 4.10756 40.2474 6.20541 44.9627 10.2314H39.385C38.8154 10.2314 38.269 10.458 37.8662 10.8613C37.4634 11.2647 37.2371 11.8117 37.2371 12.3821C37.2371 12.9525 37.4634 13.4996 37.8662 13.9029C38.269 14.3062 38.8154 14.5328 39.385 14.5328H49.5478C50.1175 14.5328 50.6638 14.3062 51.0666 13.9029C51.4694 13.4996 51.6957 12.9525 51.6957 12.3821V2.20583C51.6957 1.63543 51.4694 1.08838 51.0666 0.685048C50.6638 0.28171 50.1175 0.0551178 49.5478 0.0551178C48.9782 0.0551178 48.4319 0.28171 48.0291 0.685048C47.6263 1.08838 47.4 1.63543 47.4 2.20583V6.66121C41.6651 1.90487 34.32 -0.454893 26.8921 0.0726763C19.4642 0.600246 12.5253 3.97454 7.51839 9.49382C2.51147 15.0131 -0.178048 22.2525 0.00915613 29.7066C0.19636 37.1607 3.24588 44.2556 8.52352 49.5159C11.2048 52.2141 14.3937 54.3532 17.9058 55.8094C21.4179 57.2657 25.1835 58.0102 28.9848 57.9999Z" fill="#3DBB74"/>
<path d="M53.6096 27.8593C53.6357 28.4119 53.8735 28.9331 54.2735 29.3147C54.6735 29.6962 55.205 29.9088 55.7574 29.9082H55.8603C56.1421 29.8948 56.4185 29.826 56.6737 29.7057C56.9289 29.5854 57.1579 29.4159 57.3477 29.2069C57.5375 28.9979 57.6844 28.7536 57.7798 28.4878C57.8753 28.222 57.9176 27.94 57.9042 27.6578C57.7627 24.6688 57.1582 21.72 56.1124 18.9169C55.9135 18.3819 55.5105 17.948 54.992 17.7105C54.4736 17.4731 53.8821 17.4516 53.3479 17.6508C52.8136 17.85 52.3802 18.2535 52.1431 18.7727C51.906 19.2918 51.8845 19.884 52.0835 20.419C52.9743 22.8049 53.4892 25.315 53.6096 27.8593Z" fill="#3DBB74"/>
<path d="M28.9848 12.1297C28.4152 12.1297 27.8688 12.3563 27.466 12.7596C27.0632 13.1629 26.8369 13.71 26.8369 14.2804V28.131L19.2708 35.7072C19.0707 35.9067 18.9118 36.1439 18.8033 36.405C18.6948 36.6661 18.6388 36.9461 18.6385 37.2289C18.6382 37.5117 18.6937 37.7918 18.8016 38.0531C18.9096 38.3145 19.0679 38.5519 19.2676 38.7519C19.4673 38.9519 19.7045 39.1104 19.9655 39.2185C20.2265 39.3266 20.5062 39.3821 20.7886 39.3818C21.0711 39.3815 21.3507 39.3255 21.6114 39.2168C21.8722 39.1082 22.109 38.9491 22.3083 38.7487L30.5041 30.5421C30.9066 30.1388 31.1327 29.592 31.1327 29.0218V14.2804C31.1327 13.71 30.9064 13.1629 30.5036 12.7596C30.1008 12.3563 29.5545 12.1297 28.9848 12.1297Z" fill="#3DBB74"/>
</svg>
