<?xml version="1.0" encoding="UTF-8"?>
<svg version="1.1" viewBox="0 0 2048 2048" width="1280" height="1280" xmlns="http://www.w3.org/2000/svg">
<path transform="translate(1391,886)" d="m0 0h40l1 187 4 14 7 11 8 6 9 4 10 2h15l16-4 9-5 7-6 6-10-5-17-2-13v-21l3-17 5-14 7-14 9-12 8-9 10-8 13-8 15-6 12-3 7-1h19l16 3 16 6 14 8 14 12 8 9 9 14 6 13 5 17 2 18-1 17-4 18-7 17-7 11-9 11-8 8-14 10-15 7-13 4-13 2h-16l-18-3-16-6-15-9-14-12-11-14-2-3h-4l-6 15-8 11-9 8-12 6-11 3-7 1h-20l-16-3-14-6-9-7-7-7-7-11-5-12-4-16-1-7z" fill="#0E5C56"/>
<path transform="translate(841,942)" d="m0 0h20l16 3 10 4 13 9 8 9 7 12 6 18 2 12 1 15v42l-2 21-5 19-7 14-8 10-8 7-14 7-16 4-16 1-17-2-15-5-10-7-8-8-8-14-3-9-1 109h-39v-266h40l-1 32-1 8h2l3-10 6-11 10-11 14-8 9-3zm-9 32-15 3-13 7-10 10-6 10-2 5v66l3 12 6 11 8 8 14 7 9 2h21l13-4 9-6 7-8 4-8 3-11 1-8v-51l-3-16-6-12-6-7-10-6-10-3-7-1z" fill="#15AE8A"/>
<path transform="translate(1269,942)" d="m0 0h20l16 3 12 5 12 9 9 11 7 14 5 19 1 7v70l-4 20-6 15-9 13-10 9-14 7-16 4-16 1-18-2-14-5-10-7-8-8-8-14-3-9-1 109h-39v-266h40l-1 30-1 10h2l3-10 6-11 10-11 11-7 16-5zm-9 32-12 2-16 8-10 10-7 12-1 3v67l4 13 6 10 7 7 14 7 9 2h21l13-4 9-6 7-8 5-11 2-8 1-9v-49l-2-13-4-11-6-9-9-7-10-4-11-2z" fill="#0E5C56"/>
<path transform="translate(1272,857)" d="m0 0h27l-4 2-32 8-38 13-30 13-27 14-21 13-16 11-13 10-13 11-10 9-21 21-9 11-13 17-10 15-9 16-8 16-9 21-6 18-6 24-4 25h-49l1-9 7-25 10-28 12-26 12-22 11-17 8-11-7-14-14-24-12-22-12-21-13-23-3-6h43l14 25 14 24 15 27h3l7-8 12-12 8-7 14-12 19-14 20-13 25-14 24-11 27-10 26-7 25-5z" fill="#0E5D56"/>
<path transform="translate(293,886)" d="m0 0h192v34l-75 1-1 223h-40l-1-223-75-1z" fill="#15AE8A" font-size="20"/>
<path transform="translate(589,944)" d="m0 0h24l8 2v38l-10-1h-22l-15 4-11 6-10 9-7 10-4 8-1 124h-39v-197h38v24l-1 23h2l2-9 8-16 7-9 9-8 13-6z" fill="#15AE8A"/>
<path transform="translate(664,954)" d="m0 0 8 6 10 6 7-1 8-6 7-5v190h-40z" fill="#15AE8A"/>
<path transform="translate(1062,1021)" d="m0 0 3 1 15 27 28 49 14 25 11 19v2h-42l-5-8-16-28-14-25-14-24-1-3 13-23z" fill="#0E5D56"/>
<path transform="translate(674,835)" d="m0 0h17l12 4 9 6 7 8 4 9 2 9v11l-3 14-5 13-9 15-8 10-9 10-6 3-7-2-9-9-10-13-9-16-5-13-2-10v-14l4-13 8-11 9-7zm7 10-8 2-7 4-8 9-4 10v14l4 14 7 14 10 14 8 9 4-2 11-14 8-13 6-14 2-9v-12l-4-11-5-7-9-5-12-3z" fill="#15AE8A"/>
<path transform="translate(1706,1117)" d="m0 0 4 2 22 22 7 8 12 12 4 8v8l-4 8-6 5-3 1h-9l-6-3-19-19-7-8-18-18 2-4 10-9 7-7z" fill="#0E5D57"/>
<path transform="translate(1617,963)" d="m0 0h11v14l-20 3-15 5-13 7-11 10-7 11-4 12-1 8h-14l-1-3 3-16 8-16 11-12 7-6 14-8 12-5z" fill="#FEFEFE"/>
<path transform="translate(679,859)" d="m0 0h10l6 4 4 6 1 7-3 9-6 5-2 1h-10l-6-4-4-6-1-9 3-7 6-5z" fill="#15AE8A"/>
<path transform="translate(1303,835)" d="m0 0 6 2 39 19-3 3-41 20-1-3 8-17 16-2-15-2-8-16z" fill="#0E6159"/>
</svg>
