<svg width="18" height="12" viewBox="0 0 18 12" fill="none" xmlns="http://www.w3.org/2000/svg">
<path d="M0.858228 0C1.33294 0 1.71646 0.383036 1.71646 0.857143V7.71429H7.72405V3.42857C7.72405 2.95446 8.10757 2.57143 8.58228 2.57143H14.5899C16.0113 2.57143 17.1646 3.72321 17.1646 5.14286V11.1429C17.1646 11.617 16.781 12 16.3063 12C15.8316 12 15.4481 11.617 15.4481 11.1429V10.2857H1.71646V11.1429C1.71646 11.617 1.33294 12 0.858228 12C0.383521 12 0 11.617 0 11.1429V0.857143C0 0.383036 0.383521 0 0.858228 0ZM4.72025 2.57143C5.28929 2.57143 5.83503 2.79719 6.2374 3.19906C6.63977 3.60092 6.86582 4.14596 6.86582 4.71429C6.86582 5.28261 6.63977 5.82765 6.2374 6.22951C5.83503 6.63138 5.28929 6.85714 4.72025 6.85714C4.15121 6.85714 3.60548 6.63138 3.20311 6.22951C2.80073 5.82765 2.57468 5.28261 2.57468 4.71429C2.57468 4.14596 2.80073 3.60092 3.20311 3.19906C3.60548 2.79719 4.15121 2.57143 4.72025 2.57143Z" fill="#6A778B"/>
</svg>
