<svg width="107" height="45" viewBox="0 0 107 45" fill="none" xmlns="http://www.w3.org/2000/svg">
<path d="M93.8012 2.6058C76.7072 -0.280197 62.2772 -0.724199 49.8452 1.0518C47.8472 1.2738 45.6272 1.9398 43.4072 3.0498L25.4252 11.2638C16.9892 13.7058 10.5512 16.1478 5.88924 19.0338C0.783236 21.9198 -0.770763 27.4698 0.339237 31.4658C1.22724 34.5738 3.44724 36.5718 6.33324 37.2378C4.77924 29.4678 11.2172 21.0318 20.3192 21.0318C28.7552 21.0318 35.6372 28.5798 34.3052 37.4598H76.0412C74.7092 28.5798 81.5912 21.0318 90.0272 21.0318C97.3532 21.0318 103.347 26.5818 104.013 33.6858C110.229 24.8058 105.567 4.3818 93.8012 2.6058ZM58.0592 11.2638H36.3032L45.4052 7.0458C47.1812 6.1578 48.9572 5.7138 50.5112 5.4918C52.9532 5.0478 55.6172 4.8258 58.0592 4.8258V11.2638ZM77.5952 11.2638H62.4992V4.6038C67.3832 4.6038 72.2672 4.6038 77.5952 5.0478V11.2638ZM82.0352 11.2638V5.4918C85.5872 5.9358 89.3612 6.3798 93.1352 7.0458C95.5772 7.4898 97.5752 8.8218 98.9072 11.2638H82.0352Z" fill="#5D6670"/>
<path d="M30.0872 35.0178C30.0872 40.3458 25.6472 44.7858 20.3192 44.7858C14.9912 44.7858 10.5512 40.3458 10.5512 35.0178C10.5512 29.6898 14.9912 25.2498 20.3192 25.2498C25.6472 25.2498 30.0872 29.6898 30.0872 35.0178Z" fill="#5D6670"/>
<path d="M99.7952 35.0178C99.7952 40.5678 95.3552 44.7858 90.0272 44.7858C84.6992 44.7858 80.2592 40.3458 80.2592 35.0178C80.2592 29.6898 84.6992 25.2498 90.0272 25.2498C95.3552 25.2498 99.7952 29.6898 99.7952 35.0178Z" fill="#5D6670"/>
</svg>
