<svg width="10" height="10" viewBox="0 0 10 10" fill="none" xmlns="http://www.w3.org/2000/svg">
<g clip-path="url(#clip0_2379_383)">
<path d="M0 7.91602V8.75C0 9.43945 1.67969 10 3.75 10C5.82031 10 7.5 9.43945 7.5 8.75V7.91602C6.69336 8.48438 5.21875 8.75 3.75 8.75C2.28125 8.75 0.806641 8.48438 0 7.91602ZM6.25 2.5C8.32031 2.5 10 1.93945 10 1.25C10 0.560547 8.32031 0 6.25 0C4.17969 0 2.5 0.560547 2.5 1.25C2.5 1.93945 4.17969 2.5 6.25 2.5ZM0 5.86719V6.875C0 7.56445 1.67969 8.125 3.75 8.125C5.82031 8.125 7.5 7.56445 7.5 6.875V5.86719C6.69336 6.53125 5.2168 6.875 3.75 6.875C2.2832 6.875 0.806641 6.53125 0 5.86719ZM8.125 6.08203C9.24414 5.86523 10 5.46289 10 5V4.16602C9.54688 4.48633 8.88086 4.70508 8.125 4.83984V6.08203ZM3.75 3.125C1.67969 3.125 0 3.82422 0 4.6875C0 5.55078 1.67969 6.25 3.75 6.25C5.82031 6.25 7.5 5.55078 7.5 4.6875C7.5 3.82422 5.82031 3.125 3.75 3.125ZM8.0332 4.22461C9.20508 4.01367 10 3.59961 10 3.125V2.29102C9.30664 2.78125 8.11523 3.04492 6.86133 3.10742C7.4375 3.38672 7.86133 3.76172 8.0332 4.22461Z" fill="white"/>
</g>
<defs>
<clipPath id="clip0_2379_383">
<rect width="10" height="10" fill="white"/>
</clipPath>
</defs>
</svg>
