<svg width="27" height="17" viewBox="0 0 27 17" fill="none" xmlns="http://www.w3.org/2000/svg">
<g id="noun-coffee-7459127">
<path id="Vector" d="M15.1567 4.51997C13.9862 4.5144 12.8288 4.77471 11.7735 5.28138C10.7927 4.7654 9.50789 4.35264 8.48533 4.53299L7.2665 3.31417L7.26743 3.3151C7.46918 2.72848 7.24047 2.07955 6.71427 1.75044C6.18901 1.42133 5.50569 1.49849 5.06593 1.93638C4.93764 2.06839 4.83723 2.2255 4.77122 2.39657C4.35008 2.55927 4.03956 2.9237 3.9466 3.36531C3.85363 3.80784 3.99029 4.26618 4.31009 4.58506C4.67359 4.94855 5.21376 5.07036 5.69811 4.89836L6.91879 6.11718C6.71147 7.24675 7.22931 8.67092 7.81686 9.676C7.51005 10.5211 7.35202 11.4136 7.35109 12.3126V12.6937C7.42454 14.1413 8.62196 15.2765 10.0714 15.2737H20.2328C21.6515 15.282 22.8342 14.1896 22.9391 12.7756C22.9391 12.6306 22.954 12.4763 22.954 12.3163C22.9512 10.2496 22.1294 8.26749 20.6679 6.80617C19.2055 5.3447 17.2242 4.52276 15.1567 4.51997ZM11.5253 6.23338C11.6471 6.30404 11.7633 6.37655 11.8777 6.44814L11.8786 6.44907C12.1714 6.6378 12.4457 6.85534 12.6967 7.098C13.2778 7.65768 13.6143 8.4228 13.6357 9.22884C13.6515 9.77272 13.4451 10.3008 13.0649 10.6912C12.8864 10.8688 12.6753 11.0092 12.442 11.104L12.415 11.1152C12.3713 11.1319 12.3239 11.1477 12.2784 11.1607C12.2328 11.1737 12.244 11.1737 12.2272 11.1775C12.164 11.1961 12.1017 11.21 12.0366 11.223V11.2239C11.8972 11.2491 11.7568 11.2621 11.6155 11.2621C11.3096 11.2593 11.0056 11.2054 10.7174 11.104C10.2517 10.9395 9.8305 10.6717 9.4828 10.3212C9.41773 10.258 9.35544 10.1901 9.29222 10.1158H9.29315C9.09327 9.88333 8.9129 9.63418 8.75394 9.37108C8.0074 8.19502 7.6569 6.85256 7.89304 6.10238C7.93116 5.96386 8.00182 5.83649 8.10129 5.73329L8.11989 5.71842V5.71749C8.13848 5.69889 8.158 5.68216 8.17939 5.66636L8.21007 5.64497H8.20914C8.22773 5.63103 8.24632 5.61894 8.26678 5.60872H8.27979C8.34022 5.57525 8.40344 5.54829 8.47038 5.52876C8.64237 5.47856 8.82181 5.45532 9.00124 5.45904C9.70036 5.45904 10.6412 5.73888 11.5262 6.23903L11.5253 6.23338ZM5.77974 3.83863C5.67283 3.8377 5.5687 3.87396 5.48503 3.94089C5.32698 4.08128 5.08526 4.0664 4.94581 3.90929C4.80636 3.75124 4.82031 3.50952 4.97835 3.37007C5.04064 3.30778 5.12245 3.26874 5.21077 3.25944C5.42925 3.23341 5.60124 3.06142 5.62727 2.84294C5.6375 2.69233 5.73512 2.56217 5.87644 2.51105C6.01682 2.45899 6.17579 2.49524 6.28085 2.60309C6.41751 2.73975 6.4296 2.9573 6.30874 3.10884C6.15534 3.2985 6.17114 3.57368 6.34499 3.74475L7.54616 4.94591C7.50618 4.98217 7.4662 5.01843 7.42809 5.05654H7.42902C7.3909 5.09466 7.35464 5.13371 7.32024 5.17461L6.11722 3.97345C6.02704 3.88513 5.90619 3.83677 5.77974 3.83863ZM21.9887 12.7125C21.9171 13.6273 21.1502 14.3301 20.2326 14.3217H10.0711C9.13123 14.3199 8.35681 13.5817 8.31032 12.6427V12.3173V12.3164C8.30661 11.7632 8.36982 11.2119 8.50091 10.6737C8.51207 10.6885 8.52601 10.7025 8.53717 10.7155L8.60225 10.7899C8.66732 10.8642 8.73147 10.9368 8.79283 11.0009H8.7919C9.54403 11.7419 10.5444 12.176 11.5986 12.2197C11.7037 12.2197 11.806 12.2197 11.9092 12.2048H11.9659C12.0458 12.2048 12.1276 12.1863 12.2057 12.1705L12.3201 12.1435C12.3768 12.1305 12.4363 12.1184 12.493 12.1017C12.5497 12.0849 12.5999 12.0654 12.651 12.0468C12.7022 12.0282 12.731 12.0217 12.7691 12.0068C12.8072 11.992 12.8677 11.9613 12.9179 11.938C12.9671 11.9148 12.996 11.9055 13.0341 11.8869L13.0889 11.8544C13.3279 11.7223 13.5463 11.5559 13.7369 11.3607C14.2938 10.7936 14.5997 10.0257 14.5876 9.23079C14.5671 8.17002 14.1292 7.16038 13.3688 6.42025C13.1763 6.23152 12.9699 6.05675 12.7524 5.89684C14.8553 5.11218 17.2101 5.40689 19.0546 6.68707C20.8991 7.96632 21.9999 10.0683 22.0018 12.3127C22.0018 12.4558 21.998 12.5888 21.9887 12.7125ZM19.514 7.95246H19.5131C20.6743 9.10621 21.325 10.6764 21.3204 12.3126C21.3204 12.5757 21.1075 12.7886 20.8444 12.7886C20.5813 12.7886 20.3684 12.5757 20.3684 12.3126C20.3731 10.9311 19.8245 9.60537 18.8447 8.63099C18.6587 8.44413 18.6587 8.1429 18.8447 7.95698C19.0315 7.77011 19.3327 7.77011 19.5187 7.95698L19.514 7.95246Z" fill="#909BA8"/>
</g>
</svg>
