<svg width="15" height="15" viewBox="0 0 15 15" fill="none" xmlns="http://www.w3.org/2000/svg">
<path d="M7.5 9.375C8.53553 9.375 9.375 8.53553 9.375 7.5C9.375 6.46447 8.53553 5.625 7.5 5.625C6.46447 5.625 5.625 6.46447 5.625 7.5C5.625 8.53553 6.46447 9.375 7.5 9.375Z" fill="#6A778B"/>
<path d="M14.5032 7.34062C13.9518 5.91452 12.9947 4.68123 11.7501 3.79317C10.5055 2.9051 9.02793 2.40121 7.50004 2.34375C5.97216 2.40121 4.4946 2.9051 3.24998 3.79317C2.00536 4.68123 1.04825 5.91452 0.49692 7.34062C0.459686 7.44361 0.459686 7.55639 0.49692 7.65938C1.04825 9.08548 2.00536 10.3188 3.24998 11.2068C4.4946 12.0949 5.97216 12.5988 7.50004 12.6562C9.02793 12.5988 10.5055 12.0949 11.7501 11.2068C12.9947 10.3188 13.9518 9.08548 14.5032 7.65938C14.5404 7.55639 14.5404 7.44361 14.5032 7.34062ZM7.50004 10.5469C6.89743 10.5469 6.30835 10.3682 5.80729 10.0334C5.30624 9.69859 4.91571 9.22273 4.6851 8.66599C4.45449 8.10924 4.39415 7.49662 4.51171 6.90558C4.62928 6.31455 4.91947 5.77165 5.34558 5.34553C5.77169 4.91942 6.31459 4.62923 6.90563 4.51167C7.49666 4.39411 8.10929 4.45444 8.66603 4.68505C9.22278 4.91567 9.69863 5.30619 10.0334 5.80725C10.3682 6.3083 10.5469 6.89739 10.5469 7.5C10.5457 8.3077 10.2243 9.08197 9.65314 9.6531C9.08201 10.2242 8.30775 10.5456 7.50004 10.5469Z" fill="#6A778B"/>
</svg>
