<svg width="13" height="11" viewBox="0 0 13 11" fill="none" xmlns="http://www.w3.org/2000/svg">
<path id="Vector" d="M2.43164 3.93636L4.2185 2.99545V6.22727C4.01837 6.24545 3.82301 6.27509 3.63241 6.31618C3.44181 6.35727 3.25598 6.414 3.07491 6.48636V4.85L2.48882 5.15C2.3554 5.22273 2.21245 5.23873 2.05997 5.198C1.9075 5.15727 1.79314 5.07309 1.7169 4.94545L0.573307 3.05C0.497068 2.92273 0.480295 2.78418 0.522989 2.63436C0.565683 2.48455 0.65393 2.37309 0.78773 2.3L3.63241 0.731818C3.74677 0.668182 3.86589 0.613636 3.98978 0.568182C4.11367 0.522727 4.24233 0.5 4.37574 0.5C4.50916 0.5 4.62352 0.538727 4.71882 0.616182C4.81412 0.693636 4.88559 0.791273 4.93324 0.909091C5.06666 1.25455 5.24068 1.54545 5.45529 1.78182C5.66991 2.01818 6.02004 2.13636 6.50568 2.13636C6.99171 2.13636 7.34203 2.01818 7.55664 1.78182C7.77125 1.54545 7.94508 1.25455 8.07812 0.909091C8.12577 0.790909 8.19972 0.693273 8.29997 0.616182C8.40023 0.539091 8.51687 0.500364 8.64991 0.5C8.78333 0.5 8.9097 0.522727 9.02901 0.568182C9.14833 0.613636 9.26497 0.668182 9.37895 0.731818L12.2236 2.3C12.357 2.37273 12.4428 2.48182 12.4809 2.62727C12.5191 2.77273 12.5 2.90909 12.4238 3.03636L11.2945 4.94545C11.2182 5.07273 11.1039 5.15691 10.9514 5.198C10.7989 5.23909 10.656 5.22309 10.5225 5.15L9.93645 4.85V7.46818L9.03587 8.21818C8.99775 8.24545 8.95963 8.27055 8.92152 8.29345C8.8834 8.31636 8.84051 8.33673 8.79286 8.35455V2.99545L10.5797 3.93636L11.1515 2.98182L8.9644 1.76818C8.73568 2.21364 8.39966 2.56818 7.95632 2.83182C7.51299 3.09545 7.02945 3.22727 6.50568 3.22727C5.98154 3.22727 5.49799 3.09545 5.05504 2.83182C4.61209 2.56818 4.27606 2.21364 4.04696 1.76818L1.84555 2.98182L2.43164 3.93636ZM1.93132 9.02273C1.82649 8.90455 1.78113 8.77055 1.79523 8.62073C1.80934 8.47091 1.87852 8.34582 2.00279 8.24546L2.80331 7.59091C3.0225 7.40909 3.27275 7.27036 3.55407 7.17473C3.8354 7.07909 4.12835 7.03146 4.43292 7.03182C4.73788 7.03182 5.02854 7.07964 5.30491 7.17527C5.58128 7.27091 5.82906 7.40945 6.04824 7.59091L7.70645 8.94091C7.82081 9.03182 7.95671 9.10236 8.11414 9.15255C8.27157 9.20273 8.43111 9.22764 8.59273 9.22727C8.76427 9.22727 8.92399 9.20455 9.0719 9.15909C9.2198 9.11364 9.35074 9.04091 9.46472 8.94091L10.2652 8.28636C10.3891 8.18636 10.5298 8.14091 10.6872 8.15C10.8447 8.15909 10.9756 8.22273 11.08 8.34091C11.1849 8.45909 11.2302 8.59327 11.2161 8.74345C11.202 8.89364 11.1328 9.01855 11.0086 9.11818L10.2081 9.77273C9.98886 9.95455 9.74109 10.0909 9.46472 10.1818C9.18835 10.2727 8.89769 10.3182 8.59273 10.3182C8.28778 10.3182 7.99483 10.2727 7.71388 10.1818C7.43294 10.0909 7.18269 9.95455 6.96312 9.77273L5.30491 8.42273C5.19055 8.33182 5.05961 8.26146 4.91209 8.21164C4.76456 8.16182 4.60484 8.13673 4.43292 8.13636C4.27092 8.13636 4.11138 8.16146 3.95433 8.21164C3.79728 8.26182 3.66138 8.33218 3.54664 8.42273L2.73183 9.07727C2.60794 9.17727 2.46976 9.22273 2.31728 9.21364C2.1648 9.20455 2.03615 9.14091 1.93132 9.02273Z" fill="url(#paint0_linear_2221_374)"/>
<defs>
<linearGradient id="paint0_linear_2221_374" x1="-3.05" y1="5.40909" x2="15.036" y2="4.31748" gradientUnits="userSpaceOnUse">
<stop stop-color="#FF5F5F"/>
<stop offset="1" stop-color="#FF9080"/>
</linearGradient>
</defs>
</svg>
