<svg width="10" height="13" viewBox="0 0 10 13" fill="none" xmlns="http://www.w3.org/2000/svg">
<path id="Vector" fill-rule="evenodd" clip-rule="evenodd" d="M5.85 6.51742e-08C6.17798 -0.000103727 6.49387 0.123764 6.73436 0.346773C6.97484 0.569782 7.12215 0.875449 7.14675 1.2025L7.15 1.3V2.6H7.8C8.12797 2.5999 8.44387 2.72376 8.68436 2.94677C8.92484 3.16978 9.07215 3.47545 9.09675 3.8025L9.1 3.9V11.05C9.1 11.3948 8.96304 11.7254 8.71924 11.9692C8.47544 12.213 8.14478 12.35 7.8 12.35C7.79982 12.5157 7.73638 12.675 7.62265 12.7955C7.50892 12.916 7.35348 12.9885 7.18809 12.9982C7.02271 13.0079 6.85985 12.9541 6.73281 12.8477C6.60576 12.7414 6.52412 12.5906 6.50455 12.4261L6.5 12.35H2.6C2.6 12.5224 2.53152 12.6877 2.40962 12.8096C2.28772 12.9315 2.12239 13 1.95 13C1.77761 13 1.61228 12.9315 1.49038 12.8096C1.36848 12.6877 1.3 12.5224 1.3 12.35C0.972025 12.3501 0.656132 12.2262 0.415644 12.0032C0.175156 11.7802 0.0278482 11.4746 0.00325014 11.1475L6.51742e-08 11.05V3.9C-0.000103727 3.57203 0.123764 3.25613 0.346773 3.01564C0.569782 2.77516 0.875449 2.62785 1.2025 2.60325L1.3 2.6H1.95V1.3C1.9499 0.972025 2.07376 0.656132 2.29677 0.415644C2.51978 0.175156 2.82545 0.0278482 3.1525 0.00325014L3.25 6.51742e-08H5.85ZM3.25 5.2C3.07761 5.2 2.91228 5.26848 2.79038 5.39038C2.66848 5.51228 2.6 5.67761 2.6 5.85V9.1C2.6 9.27239 2.66848 9.43772 2.79038 9.55962C2.91228 9.68152 3.07761 9.75 3.25 9.75C3.42239 9.75 3.58772 9.68152 3.70962 9.55962C3.83152 9.43772 3.9 9.27239 3.9 9.1V5.85C3.9 5.67761 3.83152 5.51228 3.70962 5.39038C3.58772 5.26848 3.42239 5.2 3.25 5.2ZM5.85 5.2C5.69079 5.20002 5.53713 5.25847 5.41816 5.36426C5.29919 5.47006 5.22318 5.61584 5.20455 5.77395L5.2 5.85V9.1C5.20018 9.26567 5.26362 9.42502 5.37735 9.54549C5.49108 9.66596 5.64652 9.73845 5.81191 9.74816C5.97729 9.75787 6.14015 9.70406 6.26719 9.59773C6.39424 9.49139 6.47588 9.34056 6.49545 9.17605L6.5 9.1V5.85C6.5 5.67761 6.43152 5.51228 6.30962 5.39038C6.18772 5.26848 6.02239 5.2 5.85 5.2ZM5.85 1.3H3.25V2.6H5.85V1.3Z" fill="url(#paint0_linear_1858_558)"/>
<defs>
<linearGradient id="paint0_linear_1858_558" x1="-2.69208" y1="6.5" x2="11.0566" y2="6.02473" gradientUnits="userSpaceOnUse">
<stop stop-color="#1EC089"/>
<stop offset="1" stop-color="#1EC089"/>
</linearGradient>
</defs>
</svg>
