<svg width="16" height="15" viewBox="0 0 16 15" fill="none" xmlns="http://www.w3.org/2000/svg">
<g id="carbon:clean" clip-path="url(#clip0_2203_316)">
<path id="Vector" d="M12.7331 9.37502H9.89331V8.43752H12.7331V9.37502ZM14.6263 13.125H11.7865V12.1875H14.6263V13.125ZM13.6797 11.25H10.8399V10.3125H13.6797V11.25Z" fill="#FF7865"/>
<path id="Vector_2" d="M8.47483 9.37502C8.47149 8.97949 8.36497 8.59154 8.16561 8.2488C7.96625 7.90607 7.68082 7.62019 7.33701 7.41892L10.8399 1.40627L10.0211 0.937515L6.4349 7.09033C5.99478 6.99295 5.53703 7.00642 5.10351 7.1295C4.67 7.25258 4.27457 7.48134 3.95338 7.79486C2.18134 9.48752 2.3186 13.4447 2.32523 13.6125C2.33012 13.7336 2.38214 13.848 2.47037 13.9319C2.55861 14.0158 2.67621 14.0626 2.79853 14.0625H9.89378C9.99312 14.0625 10.0899 14.0316 10.1705 13.974C10.2511 13.9165 10.3114 13.8353 10.3428 13.742C10.3742 13.6487 10.3752 13.5479 10.3456 13.454C10.3159 13.3601 10.2572 13.2778 10.1778 13.2188C8.50228 11.9738 8.47483 9.40033 8.47483 9.37502ZM6.07377 7.96736C6.45259 7.97148 6.81522 8.1201 7.08621 8.38228C7.3572 8.64447 7.51569 9.00004 7.5287 9.37502C7.5287 9.39283 7.52964 9.47252 7.53674 9.59486L4.74427 8.36486C4.92821 8.21464 5.14048 8.10213 5.36872 8.03389C5.59696 7.96565 5.83662 7.94304 6.07377 7.96736ZM7.73979 13.125C7.36148 12.7435 7.12033 12.2494 7.0535 11.7188H6.1069C6.1408 12.2176 6.29815 12.7006 6.56506 13.125H5.51291C5.31826 12.5167 5.19984 11.887 5.1603 11.25H4.2137C4.24422 11.8851 4.34986 12.5144 4.52844 13.125H3.2671C3.28177 12.2644 3.40435 10.3631 4.12046 9.1158L7.68583 10.6861C7.85714 11.567 8.22235 12.3997 8.75549 13.125H7.73979Z" fill="#FF7865"/>
</g>
<defs>
<clipPath id="clip0_2203_316">
<rect width="15.1456" height="15" fill="white" transform="translate(0.427246 1.52588e-05)"/>
</clipPath>
</defs>
</svg>
