<svg width="15" height="15" viewBox="0 0 15 15" fill="none" xmlns="http://www.w3.org/2000/svg">
<rect width="15" height="15" fill="#F0F0F0"/>
<g id="package-description" clip-path="url(#clip0_1274_804)">
<rect width="360" height="800" transform="translate(-44 -681)" fill="white"/>
<g id="Frame 5043">
<g id="Rectangle 9147" filter="url(#filter0_d_1274_804)">
<rect x="-19" y="-161" width="309" height="266" rx="14" fill="white"/>
<rect x="-18" y="-160" width="307" height="264" rx="13" stroke="#ACA19F" stroke-opacity="0.34" stroke-width="2"/>
</g>
<g id="shopping-building--real-home-tower-building-house-estate">
<path id="Vector 236" d="M1.65099 3.86496C0.93237 5.66152 0.938443 10.6286 1.06517 13.0614C1.09294 13.5945 1.53796 13.9972 2.07186 13.9972H8.50452C9.03841 13.9972 9.48343 13.5945 9.51121 13.0614C9.63793 10.6286 9.644 5.66152 8.92538 3.86496C8.50165 3.29998 7.45592 2.13603 6.18271 1.27488C5.64082 0.908373 4.93555 0.908373 4.39366 1.27488C3.12045 2.13603 2.07472 3.29998 1.65099 3.86496Z" fill="white" stroke="url(#paint0_linear_1274_804)" stroke-width="1.5" stroke-linecap="round" stroke-linejoin="round"/>
<path id="Subtract" d="M9.44383 6.72278H11.7909C12.6177 6.72278 13.3291 7.12617 13.4827 7.93862C13.7183 9.18506 13.8716 11.2993 13.6018 13.9972H8.50452C9.03841 13.9972 9.48343 13.5945 9.51121 13.0614C9.59293 11.4925 9.62448 8.86959 9.44383 6.72278Z" fill="#96FFD3" fill-opacity="0.13" stroke="url(#paint1_linear_1274_804)" stroke-width="1.5" stroke-linecap="round" stroke-linejoin="round"/>
<path id="Vector 232" d="M4.76855 8.54138H5.80776" stroke="url(#paint2_linear_1274_804)" stroke-width="1.5" stroke-linecap="round" stroke-linejoin="round"/>
<path id="Vector 234" d="M5.28821 14V11.659" stroke="url(#paint3_linear_1274_804)" stroke-width="1.5" stroke-linecap="round" stroke-linejoin="round"/>
<path id="Vector 235" d="M4.76855 5.42358H5.80776" stroke="url(#paint4_linear_1274_804)" stroke-width="1.5" stroke-linecap="round" stroke-linejoin="round"/>
</g>
</g>
</g>
<defs>
<filter id="filter0_d_1274_804" x="-40.8" y="-178.8" width="360.6" height="317.6" filterUnits="userSpaceOnUse" color-interpolation-filters="sRGB">
<feFlood flood-opacity="0" result="BackgroundImageFix"/>
<feColorMatrix in="SourceAlpha" type="matrix" values="0 0 0 0 0 0 0 0 0 0 0 0 0 0 0 0 0 0 127 0" result="hardAlpha"/>
<feOffset dx="4" dy="8"/>
<feGaussianBlur stdDeviation="12.9"/>
<feComposite in2="hardAlpha" operator="out"/>
<feColorMatrix type="matrix" values="0 0 0 0 0.675 0 0 0 0 0.631114 0 0 0 0 0.624938 0 0 0 0.34 0"/>
<feBlend mode="normal" in2="BackgroundImageFix" result="effect1_dropShadow_1274_804"/>
<feBlend mode="normal" in="SourceGraphic" in2="effect1_dropShadow_1274_804" result="shape"/>
</filter>
<linearGradient id="paint0_linear_1274_804" x1="0.542038" y1="11.8079" x2="9.57939" y2="11.7857" gradientUnits="userSpaceOnUse">
<stop stop-color="#27B182"/>
<stop offset="1" stop-color="#41D6A3"/>
</linearGradient>
<linearGradient id="paint1_linear_1274_804" x1="8.22469" y1="12.7719" x2="13.7467" y2="12.7571" gradientUnits="userSpaceOnUse">
<stop stop-color="#27B182"/>
<stop offset="1" stop-color="#41D6A3"/>
</linearGradient>
<linearGradient id="paint2_linear_1274_804" x1="4.71306" y1="9.37294" x2="5.80812" y2="9.3687" gradientUnits="userSpaceOnUse">
<stop stop-color="#27B182"/>
<stop offset="1" stop-color="#41D6A3"/>
</linearGradient>
<linearGradient id="paint3_linear_1274_804" x1="5.23481" y1="13.6056" x2="6.28856" y2="13.604" gradientUnits="userSpaceOnUse">
<stop stop-color="#27B182"/>
<stop offset="1" stop-color="#41D6A3"/>
</linearGradient>
<linearGradient id="paint4_linear_1274_804" x1="4.71306" y1="6.25514" x2="5.80812" y2="6.25091" gradientUnits="userSpaceOnUse">
<stop stop-color="#27B182"/>
<stop offset="1" stop-color="#41D6A3"/>
</linearGradient>
<clipPath id="clip0_1274_804">
<rect width="360" height="800" fill="white" transform="translate(-44 -681)"/>
</clipPath>
</defs>
</svg>
