<svg width="6" height="8" viewBox="0 0 6 8" fill="none" xmlns="http://www.w3.org/2000/svg">
<path id="Vector" d="M5.44555 1.14286C5.56271 1.14286 5.65771 1.04691 5.65771 0.928571V0.214286C5.65771 0.0959464 5.56271 0 5.44555 0H0.212164C0.0949965 0 0 0.0959464 0 0.214286V1.01336C0 1.1317 0.0949965 1.22764 0.212164 1.22764H1.71994C2.20276 1.22764 2.57322 1.40546 2.79791 1.71429H0.212164C0.0949965 1.71429 0 1.81023 0 1.92857V2.64286C0 2.7612 0.0949965 2.85714 0.212164 2.85714H3.01904C2.90912 3.50154 2.43628 3.90414 1.69731 3.90414H0.212164C0.0949965 3.90414 0 4.00009 0 4.11843V5.06507C0 5.12488 0.0247525 5.18196 0.0682638 5.22254L2.98644 7.94318C3.02563 7.97971 3.07701 8 3.13034 8H4.59007C4.78321 8 4.87589 7.76057 4.73397 7.62825L2.06632 5.14118C3.41885 5.09939 4.38499 4.1877 4.51183 2.85714H5.44555C5.56271 2.85714 5.65771 2.7612 5.65771 2.64286V1.92857C5.65771 1.81023 5.56271 1.71429 5.44555 1.71429H4.40789C4.34625 1.5082 4.26149 1.31704 4.15591 1.14286H5.44555Z" fill="url(#paint0_linear_1973_2571)"/>
<defs>
<linearGradient id="paint0_linear_1973_2571" x1="-1.67374" y1="4" x2="6.874" y2="3.70148" gradientUnits="userSpaceOnUse">
<stop stop-color="#FF5F5F"/>
<stop offset="1" stop-color="#FF9080"/>
</linearGradient>
</defs>
</svg>
