<svg width="13" height="13" viewBox="0 0 13 13" fill="none" xmlns="http://www.w3.org/2000/svg">
<g id="Group">
<path id="Vector" d="M10.8603 8.6476C9.94205 8.75328 9.03127 8.91087 8.13289 9.1195C6.75199 9.4458 5.54215 10.073 4.64766 10.6457L4.34537 10.8446L4.07056 11.0363L3.82461 11.2157L3.60889 11.3808L3.42546 11.5278L3.27431 11.6525C2.69516 12.1407 3.08882 12.9383 3.74492 12.9967L3.82187 13H9.72607C10.8816 13 11.8421 12.4508 12.5456 11.6181C13.0773 10.9895 13.1227 10.1992 12.786 9.58425C12.4467 8.96155 11.7294 8.54425 10.8603 8.6476ZM2.11601 0C1.5025 0 1.238 0.546 1.10816 1.0465L1.06693 1.2207L1.05044 1.3039C0.951514 1.82195 0.898615 2.5012 0.877317 3.1993C0.836097 4.58055 0.919912 6.1906 1.10197 6.96605C1.41937 8.31935 1.88517 9.2599 2.44303 9.8267C3.0105 10.4052 3.77721 10.6658 4.48415 10.3311C5.0262 10.075 5.34979 9.46595 5.52704 8.9466C5.78574 8.18963 5.78164 7.37421 5.51536 6.6196C5.37108 6.2088 5.11139 5.8773 4.82559 5.56205L4.57621 5.2949C4.27255 4.97315 3.9682 4.6514 3.76072 4.25945C3.45843 3.68745 3.37599 3.0615 3.35057 2.43295L3.34096 2.05595L3.33477 1.69195L3.33065 1.60225L3.31691 1.42025C3.25164 0.71955 2.99813 0 2.11601 0Z" fill="url(#paint0_linear_1858_551)"/>
</g>
<defs>
<linearGradient id="paint0_linear_1858_551" x1="16.5898" y1="6.5" x2="-1.72485" y2="5.65586" gradientUnits="userSpaceOnUse">
<stop stop-color="#FF5F5F"/>
<stop offset="1" stop-color="#FF9080"/>
</linearGradient>
</defs>
</svg>
