<svg width="16" height="16" viewBox="0 0 16 16" fill="none" xmlns="http://www.w3.org/2000/svg">
<g id="ph:sun-bold" clip-path="url(#clip0_2455_2043)">
<path id="Vector" d="M7.25 2V1C7.25 0.801088 7.32902 0.610322 7.46967 0.46967C7.61032 0.329018 7.80109 0.25 8 0.25C8.19891 0.25 8.38968 0.329018 8.53033 0.46967C8.67098 0.610322 8.75 0.801088 8.75 1V2C8.75 2.19891 8.67098 2.38968 8.53033 2.53033C8.38968 2.67098 8.19891 2.75 8 2.75C7.80109 2.75 7.61032 2.67098 7.46967 2.53033C7.32902 2.38968 7.25 2.19891 7.25 2ZM12.25 8C12.25 8.84057 12.0007 9.66226 11.5337 10.3612C11.0667 11.0601 10.403 11.6048 9.6264 11.9265C8.84982 12.2482 7.99529 12.3323 7.17087 12.1683C6.34645 12.0044 5.58917 11.5996 4.9948 11.0052C4.40042 10.4108 3.99565 9.65355 3.83166 8.82913C3.66768 8.00471 3.75184 7.15018 4.07351 6.3736C4.39518 5.59701 4.93992 4.93325 5.63883 4.46625C6.33774 3.99926 7.15943 3.75 8 3.75C9.12681 3.75116 10.2071 4.1993 11.0039 4.99608C11.8007 5.79285 12.2488 6.87319 12.25 8ZM10.75 8C10.75 7.4561 10.5887 6.92442 10.2865 6.47218C9.98437 6.01995 9.55488 5.66747 9.05238 5.45933C8.54988 5.25119 7.99695 5.19673 7.4635 5.30284C6.93005 5.40895 6.44005 5.67086 6.05546 6.05546C5.67086 6.44005 5.40895 6.93005 5.30284 7.4635C5.19673 7.99695 5.25119 8.54988 5.45933 9.05238C5.66747 9.55488 6.01995 9.98437 6.47218 10.2865C6.92442 10.5887 7.4561 10.75 8 10.75C8.72909 10.7492 9.42808 10.4592 9.94363 9.94363C10.4592 9.42808 10.7492 8.72909 10.75 8ZM3.21937 4.28062C3.28914 4.35039 3.37196 4.40573 3.46311 4.44349C3.55427 4.48124 3.65196 4.50068 3.75062 4.50068C3.84929 4.50068 3.94698 4.48124 4.03814 4.44349C4.12929 4.40573 4.21211 4.35039 4.28188 4.28062C4.35164 4.21086 4.40698 4.12804 4.44474 4.03689C4.48249 3.94573 4.50193 3.84804 4.50193 3.74938C4.50193 3.65071 4.48249 3.55302 4.44474 3.46186C4.40698 3.37071 4.35164 3.28789 4.28188 3.21813L3.53187 2.46813C3.39098 2.32723 3.19988 2.24807 3.00062 2.24807C2.80137 2.24807 2.61027 2.32723 2.46937 2.46813C2.32848 2.60902 2.24932 2.80012 2.24932 2.99938C2.24932 3.19863 2.32848 3.38973 2.46937 3.53063L3.21937 4.28062ZM3.21937 11.7181L2.46937 12.4681C2.39961 12.5379 2.34427 12.6207 2.30651 12.7119C2.26876 12.803 2.24932 12.9007 2.24932 12.9994C2.24932 13.098 2.26876 13.1957 2.30651 13.2869C2.34427 13.378 2.39961 13.4609 2.46937 13.5306C2.61027 13.6715 2.80137 13.7507 3.00062 13.7507C3.09929 13.7507 3.19698 13.7312 3.28814 13.6935C3.37929 13.6557 3.46211 13.6004 3.53187 13.5306L4.28188 12.7806C4.42277 12.6397 4.50193 12.4486 4.50193 12.2494C4.50193 12.0501 4.42277 11.859 4.28188 11.7181C4.14098 11.5772 3.94988 11.4981 3.75062 11.4981C3.55137 11.4981 3.36027 11.5772 3.21937 11.7181ZM12.25 4.5C12.3485 4.50008 12.4461 4.48074 12.5371 4.4431C12.6282 4.40546 12.7109 4.35025 12.7806 4.28062L13.5306 3.53063C13.6004 3.46086 13.6557 3.37804 13.6935 3.28689C13.7312 3.19573 13.7507 3.09804 13.7507 2.99938C13.7507 2.90071 13.7312 2.80302 13.6935 2.71186C13.6557 2.62071 13.6004 2.53789 13.5306 2.46813C13.4609 2.39836 13.378 2.34302 13.2869 2.30526C13.1957 2.26751 13.098 2.24807 12.9994 2.24807C12.9007 2.24807 12.803 2.26751 12.7119 2.30526C12.6207 2.34302 12.5379 2.39836 12.4681 2.46813L11.7181 3.21813C11.6126 3.32302 11.5407 3.45694 11.5115 3.60283C11.4823 3.74873 11.4971 3.90001 11.5542 4.03744C11.6112 4.17486 11.7078 4.29223 11.8317 4.37459C11.9556 4.45696 12.1012 4.50062 12.25 4.5ZM12.7806 11.7194C12.6397 11.5785 12.4486 11.4993 12.2494 11.4993C12.0501 11.4993 11.859 11.5785 11.7181 11.7194C11.5772 11.8603 11.4981 12.0514 11.4981 12.2506C11.4981 12.4499 11.5772 12.641 11.7181 12.7819L12.4681 13.5319C12.609 13.6728 12.8001 13.7519 12.9994 13.7519C13.1986 13.7519 13.3897 13.6728 13.5306 13.5319C13.6715 13.391 13.7507 13.1999 13.7507 13.0006C13.7507 12.8014 13.6715 12.6103 13.5306 12.4694L12.7806 11.7194ZM2.75 8C2.75 7.80109 2.67098 7.61032 2.53033 7.46967C2.38968 7.32902 2.19891 7.25 2 7.25H1C0.801088 7.25 0.610322 7.32902 0.46967 7.46967C0.329018 7.61032 0.25 7.80109 0.25 8C0.25 8.19891 0.329018 8.38968 0.46967 8.53033C0.610322 8.67098 0.801088 8.75 1 8.75H2C2.19891 8.75 2.38968 8.67098 2.53033 8.53033C2.67098 8.38968 2.75 8.19891 2.75 8ZM8 13.25C7.80109 13.25 7.61032 13.329 7.46967 13.4697C7.32902 13.6103 7.25 13.8011 7.25 14V15C7.25 15.1989 7.32902 15.3897 7.46967 15.5303C7.61032 15.671 7.80109 15.75 8 15.75C8.19891 15.75 8.38968 15.671 8.53033 15.5303C8.67098 15.3897 8.75 15.1989 8.75 15V14C8.75 13.8011 8.67098 13.6103 8.53033 13.4697C8.38968 13.329 8.19891 13.25 8 13.25ZM15 7.25H14C13.8011 7.25 13.6103 7.32902 13.4697 7.46967C13.329 7.61032 13.25 7.80109 13.25 8C13.25 8.19891 13.329 8.38968 13.4697 8.53033C13.6103 8.67098 13.8011 8.75 14 8.75H15C15.1989 8.75 15.3897 8.67098 15.5303 8.53033C15.671 8.38968 15.75 8.19891 15.75 8C15.75 7.80109 15.671 7.61032 15.5303 7.46967C15.3897 7.32902 15.1989 7.25 15 7.25Z" fill="url(#paint0_linear_2455_2043)"/>
</g>
<defs>
<linearGradient id="paint0_linear_2455_2043" x1="-4.33542" y1="8" x2="19.0537" y2="6.84498" gradientUnits="userSpaceOnUse">
<stop stop-color="#FF5F5F"/>
<stop offset="1" stop-color="#FF9080"/>
</linearGradient>
<clipPath id="clip0_2455_2043">
<rect width="16" height="16" fill="white"/>
</clipPath>
</defs>
</svg>
