<svg width="14" height="13" viewBox="0 0 14 13" fill="none" xmlns="http://www.w3.org/2000/svg">
<g id="Frame" clip-path="url(#clip0_2221_211)">
<g id="Clip path group">
<mask id="mask0_2221_211" style="mask-type:luminance" maskUnits="userSpaceOnUse" x="0" y="0" width="13" height="13">
<g id="clip0_2203_324">
<path id="Vector" d="M12.7526 0H0.117676V13H12.7526V0Z" fill="white"/>
</g>
</mask>
<g mask="url(#mask0_2221_211)">
<g id="Group">
<path id="Vector_2" d="M6.4351 11.375C6.06659 11.375 5.7551 11.2441 5.50065 10.9823C5.24621 10.7205 5.11897 10.4 5.11897 10.0208C5.11897 9.64167 5.24621 9.32118 5.50065 9.05939C5.7551 8.79758 6.06659 8.66667 6.4351 8.66667C6.80362 8.66667 7.1151 8.79758 7.36956 9.05939C7.62401 9.32118 7.75123 9.64167 7.75123 10.0208C7.75123 10.4 7.62401 10.7205 7.36956 10.9823C7.1151 11.2441 6.80362 11.375 6.4351 11.375ZM3.46065 8.31459L2.3551 7.15001C2.87278 6.61736 3.48048 6.19541 4.1782 5.88414C4.87593 5.57285 5.62823 5.41704 6.4351 5.41667C7.24234 5.41667 7.9948 5.57466 8.69254 5.89064C9.39026 6.2066 9.99778 6.63542 10.5151 7.17709L9.40957 8.31459C9.02349 7.91737 8.57601 7.60591 8.06711 7.38022C7.5582 7.15452 7.01421 7.04167 6.4351 7.04167C5.85601 7.04167 5.312 7.15452 4.80311 7.38022C4.2942 7.60591 3.84671 7.91737 3.46065 8.31459ZM1.22323 6.01251L0.117676 4.87501C0.924903 4.0264 1.86813 3.36285 2.94736 2.88439C4.02659 2.40591 5.18917 2.16667 6.4351 2.16667C7.68104 2.16667 8.84362 2.40591 9.92285 2.88439C11.0021 3.36285 11.9453 4.0264 12.7526 4.87501L11.647 6.01251C10.9714 5.31736 10.1884 4.77354 9.29796 4.38101C8.40755 3.98848 7.45326 3.79204 6.4351 3.79167C5.4173 3.79167 4.46319 3.98811 3.57278 4.38101C2.68238 4.7739 1.89919 5.31773 1.22323 6.01251Z" fill="#FF7865"/>
</g>
</g>
</g>
</g>
<defs>
<clipPath id="clip0_2221_211">
<rect width="13.7647" height="13" fill="white" transform="translate(0.117676)"/>
</clipPath>
</defs>
</svg>
