<svg width="55" height="55" viewBox="0 0 55 55" fill="none" xmlns="http://www.w3.org/2000/svg">
<path d="M2.29167 29.7917H4.58333V48.125C4.58333 49.9484 5.30766 51.697 6.59697 52.9864C7.88629 54.2757 9.63497 55 11.4583 55H43.5417C45.365 55 47.1137 54.2757 48.403 52.9864C49.6923 51.697 50.4167 49.9484 50.4167 48.125V29.7917H52.7083C53.3161 29.7917 53.899 29.5502 54.3288 29.1205C54.7586 28.6907 55 28.1078 55 27.5V16.0417C55 15.4339 54.7586 14.851 54.3288 14.4212C53.899 13.9914 53.3161 13.75 52.7083 13.75H46.8474C47.6749 12.3637 48.116 10.7811 48.125 9.16667C48.125 6.73552 47.1592 4.40394 45.4401 2.68485C43.7211 0.965771 41.3895 0 38.9583 0C36.6879 0.00166085 34.4533 0.565503 32.4539 1.64119C30.4544 2.71687 28.7525 4.27092 27.5 6.16458C26.2475 4.27092 24.5456 2.71687 22.5461 1.64119C20.5467 0.565503 18.3121 0.00166085 16.0417 0C13.6105 0 11.2789 0.965771 9.55985 2.68485C7.84077 4.40394 6.875 6.73552 6.875 9.16667C6.88398 10.7811 7.32513 12.3637 8.1526 13.75H2.29167C1.68388 13.75 1.10098 13.9914 0.671214 14.4212C0.241443 14.851 0 15.4339 0 16.0417V27.5C0 28.1078 0.241443 28.6907 0.671214 29.1205C1.10098 29.5502 1.68388 29.7917 2.29167 29.7917ZM9.16667 48.125V29.7917H20.625V50.4167H11.4583C10.8505 50.4167 10.2677 50.1752 9.83788 49.7455C9.40811 49.3157 9.16667 48.7328 9.16667 48.125ZM27.5 18.3333H29.7917V50.4167H25.2083V18.3333H27.5ZM45.8333 48.125C45.8333 48.7328 45.5919 49.3157 45.1621 49.7455C44.7324 50.1752 44.1495 50.4167 43.5417 50.4167H34.375V29.7917H45.8333V48.125ZM50.4167 25.2083H34.375V18.3333H50.4167V25.2083ZM38.9583 4.58333C40.1739 4.58333 41.3397 5.06622 42.1992 5.92576C43.0588 6.7853 43.5417 7.95109 43.5417 9.16667C43.5417 10.3822 43.0588 11.548 42.1992 12.4076C41.3397 13.2671 40.1739 13.75 38.9583 13.75H29.7917C29.7917 11.3188 30.7574 8.98727 32.4765 7.26819C34.1956 5.5491 36.5272 4.58333 38.9583 4.58333ZM11.4583 9.16667C11.4583 7.95109 11.9412 6.7853 12.8008 5.92576C13.6603 5.06622 14.8261 4.58333 16.0417 4.58333C18.4728 4.58333 20.8044 5.5491 22.5235 7.26819C24.2426 8.98727 25.2083 11.3188 25.2083 13.75H16.0417C14.8261 13.75 13.6603 13.2671 12.8008 12.4076C11.9412 11.548 11.4583 10.3822 11.4583 9.16667ZM4.58333 18.3333H20.625V25.2083H4.58333V18.3333Z" fill="#3DBB74"/>
</svg>
